<svg version="1.1" id="Layer_1" xmlns="http://www.w3.org/2000/svg" xmlns:xlink="http://www.w3.org/1999/xlink" x="0px" y="0px"
	 width="100%" viewBox="0 0 3574 3055" enable-background="new 0 0 3574 3055" xml:space="preserve">
<path fill="#FFFFFF" opacity="1.000000" stroke="none" 
	d="
M2.000000,1134.000000 
	C2.000000,756.743896 2.000000,379.487854 2.000000,2.000000 
	C965.392090,2.000000 1928.784180,2.000000 2893.088867,2.466024 
	C2894.001221,2.932048 2893.927979,3.861207 2893.062988,3.980060 
	C2887.256104,4.615903 2882.323486,5.259231 2877.370605,5.629902 
	C2837.788818,8.592187 2799.097656,16.330381 2760.976562,27.176367 
	C2662.768555,55.117706 2576.719727,104.745255 2501.796387,173.691925 
	C2471.625732,201.455673 2444.775391,232.346024 2420.643799,265.621094 
	C2373.189453,331.055359 2338.874268,402.667847 2318.851562,480.957581 
	C2307.381592,525.806519 2299.696289,571.297974 2299.450684,618.098877 
	C2298.702393,618.868347 2298.596436,619.413025 2298.602295,620.932434 
	C2298.463379,634.540222 2298.526855,647.234314 2298.545410,660.407104 
	C2298.699951,661.536682 2299.101807,662.019409 2299.720703,663.248291 
	C2300.397705,676.089966 2300.910645,688.027710 2301.749512,699.942505 
	C2304.370850,737.163513 2311.644775,773.537109 2321.397461,809.510132 
	C2339.223389,875.260559 2367.148193,936.414246 2404.889893,993.018921 
	C2431.703857,1033.234253 2462.066406,1070.594849 2497.971191,1103.174805 
	C2511.999756,1115.904419 2525.768311,1129.017456 2540.638916,1140.704102 
	C2581.842041,1173.085205 2626.061279,1200.656372 2674.003662,1222.139160 
	C2709.288574,1237.950073 2745.580078,1250.754883 2783.091797,1260.050415 
	C2823.460205,1270.053589 2864.491211,1275.702271 2906.594482,1278.675049 
	C2925.971436,1279.415039 2944.741943,1279.603882 2963.512451,1279.687866 
	C2964.338623,1279.691650 2965.168701,1278.735840 2966.887695,1278.043823 
	C2974.717041,1277.306519 2981.684570,1276.990601 2988.588867,1276.154053 
	C3009.988525,1273.560913 3031.507812,1271.592041 3052.720459,1267.891113 
	C3102.721680,1259.166870 3150.854004,1244.022217 3197.145996,1223.169922 
	C3258.610107,1195.483276 3314.485107,1159.110840 3364.470215,1113.921631 
	C3402.383789,1079.645630 3435.770996,1041.296143 3464.479492,998.946594 
	C3493.555664,956.054626 3517.113525,910.341675 3535.255859,861.778870 
	C3556.925293,803.773315 3569.892822,743.778931 3573.333984,682.137268 
	C3575.460938,644.032593 3576.170654,605.596558 3570.208984,567.580933 
	C3566.150391,541.698242 3562.638184,515.635132 3556.699463,490.161469 
	C3544.105713,436.143066 3523.949951,384.882965 3497.387695,336.084778 
	C3468.062256,282.210693 3431.451416,233.839401 3388.653320,190.107300 
	C3377.046143,178.246872 3364.354248,167.417969 3351.847900,156.472809 
	C3306.188721,116.512955 3255.383057,84.433525 3200.253174,59.326458 
	C3129.677490,27.185274 3055.495117,9.000288 2978.101318,3.290494 
	C2978.064453,2.860583 2978.000000,2.000000 2978.000000,2.000000 
	C3177.269043,2.000000 3376.538330,2.000000 3576.000000,2.000000 
	C3576.000000,654.058716 3576.000000,1306.117554 3575.414307,1958.498535 
	C3574.439453,1948.185181 3574.882324,1937.439941 3573.495850,1926.936157 
	C3570.112061,1901.304810 3566.576660,1875.656128 3561.847168,1850.247925 
	C3551.832764,1796.447266 3535.373535,1744.578857 3512.262207,1694.934082 
	C3484.062012,1634.358643 3446.969727,1580.089233 3398.943359,1533.229980 
	C3364.876221,1499.990356 3327.313232,1471.808472 3285.697266,1448.921143 
	C3234.916504,1420.993042 3180.882812,1401.915894 3124.261475,1389.911377 
	C3091.430664,1382.950684 3058.258057,1378.449341 3024.820068,1375.868774 
	C3012.582764,1374.924438 3000.311035,1374.424316 2987.422119,1373.183594 
	C2968.037598,1372.496094 2949.286377,1372.328613 2930.534668,1372.254761 
	C2929.670654,1372.251343 2928.803711,1373.088745 2927.031250,1373.710449 
	C2908.584229,1375.138672 2891.038086,1376.315674 2873.504639,1377.658203 
	C2831.636719,1380.863770 2790.618896,1388.810913 2750.146729,1399.831177 
	C2712.141357,1410.179688 2675.484375,1424.165161 2640.433105,1442.015137 
	C2595.131348,1465.084717 2553.630859,1493.802490 2516.339355,1528.494385 
	C2483.524658,1559.021484 2454.645020,1592.910522 2429.972900,1630.279053 
	C2411.616455,1658.081665 2395.011963,1686.970337 2382.060547,1717.727905 
	C2372.514648,1740.398438 2363.122559,1763.198486 2355.142578,1786.448975 
	C2342.396240,1823.585327 2333.263184,1861.749023 2326.798096,1900.486206 
	C2320.505615,1938.186523 2315.771240,1976.075928 2315.767578,2014.393555 
	C2315.745850,2247.359619 2315.741943,2480.325928 2315.787842,2713.291992 
	C2315.791260,2730.498535 2309.399170,2744.790771 2297.949707,2757.433838 
	C2283.623291,2773.254150 2265.501221,2782.678467 2245.894775,2789.759277 
	C2216.866455,2800.242676 2186.546875,2803.811523 2155.073730,2806.043945 
	C2134.088379,2806.025879 2114.040039,2806.062500 2093.129883,2805.940430 
	C2079.083252,2804.360352 2065.793701,2803.570312 2052.731201,2801.407227 
	C1998.533813,2792.432129 1952.210571,2768.203857 1913.638184,2728.971436 
	C1888.155396,2703.052734 1865.974731,2674.412354 1843.985107,2645.619385 
	C1816.137573,2609.156250 1788.397583,2572.589111 1757.339844,2538.775146 
	C1719.827148,2497.933838 1678.246216,2461.821533 1630.619751,2433.001709 
	C1580.136597,2402.453857 1526.187744,2380.541260 1468.628784,2367.519043 
	C1461.944702,2366.006836 1455.301514,2364.314209 1448.639404,2362.705322 
	C1448.424316,2362.070312 1448.209351,2361.435303 1447.994385,2360.800293 
	C1451.785889,2358.550537 1455.472168,2356.095703 1459.385742,2354.083008 
	C1489.849365,2338.416992 1522.529053,2329.814941 1556.045532,2323.873535 
	C1589.101562,2318.014404 1622.473999,2315.375488 1656.899902,2313.920898 
	C1683.903320,2313.943115 1709.968506,2313.898438 1736.948975,2313.978271 
	C1747.139893,2314.630127 1756.420532,2315.079346 1765.689697,2315.700439 
	C1784.562622,2316.965332 1803.473389,2317.878906 1822.288452,2319.745605 
	C1851.995239,2322.692627 1881.662476,2326.086182 1911.298096,2329.688721 
	C1953.176392,2334.779785 1994.677124,2342.173584 2035.982666,2350.735107 
	C2050.692139,2353.784180 2065.707764,2354.135010 2080.408691,2351.312988 
	C2128.406738,2342.099854 2161.694092,2314.728271 2178.355713,2268.588379 
	C2184.565186,2251.392334 2188.120117,2233.360107 2184.356689,2214.772217 
	C2181.262207,2199.488281 2178.703857,2184.081543 2175.143066,2168.908691 
	C2159.354492,2101.626709 2143.284424,2034.410645 2127.327393,1967.167969 
	C2115.283691,1916.414429 2103.264648,1865.654785 2091.220703,1814.901123 
	C2075.263916,1747.658447 2059.287842,1680.420654 2043.331055,1613.178101 
	C2031.286987,1562.424438 2019.296265,1511.657959 2007.217163,1460.912720 
	C1992.136719,1397.557739 1976.940796,1334.230347 1961.885376,1270.869507 
	C1945.218506,1200.727173 1928.687500,1130.552734 1912.030396,1060.408081 
	C1903.585693,1024.846069 1894.241333,989.477844 1886.699585,953.727539 
	C1880.350098,923.628845 1867.030762,898.182556 1843.592407,878.200806 
	C1824.595215,862.005310 1802.748657,852.234558 1777.830933,849.722473 
	C1768.594604,848.791321 1759.318726,848.252258 1749.395264,847.047607 
	C1747.757568,846.383911 1746.785400,846.053345 1745.813110,846.052368 
	C1710.016357,846.016296 1674.219482,845.980957 1638.423096,846.074707 
	C1636.262085,846.080383 1634.103882,847.148132 1631.035645,847.874390 
	C1622.182373,848.093018 1614.237915,848.158875 1605.380859,848.139526 
	C1598.293335,848.610107 1592.118774,849.165833 1585.051758,849.873352 
	C1579.829590,850.108337 1575.478638,849.946106 1571.173706,850.316711 
	C1551.353027,852.023193 1531.533569,853.758972 1511.736206,855.712708 
	C1490.599609,857.798706 1469.344116,859.235779 1448.397827,862.571838 
	C1412.027832,868.364197 1375.661377,874.481323 1339.640991,882.104553 
	C1263.862183,898.141968 1190.674561,921.865356 1122.070801,958.601501 
	C1075.943970,983.301758 1034.133789,1013.639771 997.858215,1051.438232 
	C993.315063,1056.172119 989.080078,1061.201782 984.531128,1066.285645 
	C982.125793,1064.923584 980.356201,1064.052856 978.722229,1062.976440 
	C957.275146,1048.846436 934.747681,1036.745605 911.278503,1026.299927 
	C860.839661,1003.850525 807.978577,989.707886 753.784912,980.216125 
	C716.814331,973.740967 679.480103,970.228210 641.434875,967.189209 
	C634.453003,966.528687 628.085327,966.399597 620.801758,966.184692 
	C585.967590,966.108154 552.049255,966.117493 517.217896,966.073120 
	C509.516205,966.524414 502.727539,967.029419 495.043091,967.708923 
	C486.551880,968.475342 478.951843,969.013733 471.361877,969.668640 
	C440.656250,972.318420 409.906555,974.559021 379.264038,977.808167 
	C351.580414,980.743530 323.889191,984.028503 296.427643,988.537720 
	C256.514679,995.091370 216.700180,1002.361023 177.043991,1010.322876 
	C148.755829,1016.002380 120.393829,1021.970886 92.781006,1030.210571 
	C45.861668,1044.211426 17.341627,1076.553345 5.735548,1124.010498 
	C4.896853,1127.439697 3.263731,1130.674683 2.000000,1134.000000 
z"/>
<path fill="#60A5FA" opacity="1.000000" stroke="none" 
	d="
M642.049133,967.720703 
	C679.480103,970.228210 716.814331,973.740967 753.784912,980.216125 
	C807.978577,989.707886 860.839661,1003.850525 911.278503,1026.299927 
	C934.747681,1036.745605 957.275146,1048.846436 978.722229,1062.976440 
	C980.356201,1064.052856 982.125793,1064.923584 984.531128,1066.285645 
	C989.080078,1061.201782 993.315063,1056.172119 997.858215,1051.438232 
	C1034.133789,1013.639771 1075.943970,983.301758 1122.070801,958.601501 
	C1190.674561,921.865356 1263.862183,898.141968 1339.640991,882.104553 
	C1375.661377,874.481323 1412.027832,868.364197 1448.397827,862.571838 
	C1469.344116,859.235779 1490.599609,857.798706 1511.736206,855.712708 
	C1531.533569,853.758972 1551.353027,852.023193 1571.173706,850.316711 
	C1575.478638,849.946106 1579.829590,850.108337 1585.944336,849.974365 
	C1593.917480,849.357300 1600.105591,848.791016 1606.293579,848.224731 
	C1614.237915,848.158875 1622.182373,848.093018 1631.972412,847.976807 
	C1655.681885,847.950989 1677.545898,848.041321 1699.409546,847.978516 
	C1716.293579,847.929993 1733.177002,847.689514 1750.060791,847.534424 
	C1759.318726,848.252258 1768.594604,848.791321 1777.830933,849.722473 
	C1802.748657,852.234558 1824.595215,862.005310 1843.592407,878.200806 
	C1867.030762,898.182556 1880.350098,923.628845 1886.699585,953.727539 
	C1894.241333,989.477844 1903.585693,1024.846069 1912.030396,1060.408081 
	C1928.687500,1130.552734 1945.218506,1200.727173 1961.885376,1270.869507 
	C1976.940796,1334.230347 1992.136719,1397.557739 2007.217163,1460.912720 
	C2019.296265,1511.657959 2031.286987,1562.424438 2043.331055,1613.178101 
	C2059.287842,1680.420654 2075.263916,1747.658447 2091.220703,1814.901123 
	C2103.264648,1865.654785 2115.283691,1916.414429 2127.327393,1967.167969 
	C2143.284424,2034.410645 2159.354492,2101.626709 2175.143066,2168.908691 
	C2178.703857,2184.081543 2181.262207,2199.488281 2184.356689,2214.772217 
	C2188.120117,2233.360107 2184.565186,2251.392334 2178.355713,2268.588379 
	C2161.694092,2314.728271 2128.406738,2342.099854 2080.408691,2351.312988 
	C2065.707764,2354.135010 2050.692139,2353.784180 2035.982666,2350.735107 
	C1994.677124,2342.173584 1953.176392,2334.779785 1911.298096,2329.688721 
	C1881.662476,2326.086182 1851.995239,2322.692627 1822.288452,2319.745605 
	C1803.473389,2317.878906 1784.562622,2316.965332 1765.689697,2315.700439 
	C1756.420532,2315.079346 1747.139893,2314.630127 1736.331787,2313.418945 
	C1733.841553,2312.506836 1732.884521,2312.082031 1731.926270,2312.079834 
	C1708.743042,2312.026367 1685.559570,2311.969482 1662.376831,2312.082520 
	C1660.235596,2312.093018 1658.099976,2313.236816 1655.961670,2313.854248 
	C1622.473999,2315.375488 1589.101562,2318.014404 1556.045532,2323.873535 
	C1522.529053,2329.814941 1489.849365,2338.416992 1459.385742,2354.083008 
	C1455.472168,2356.095703 1451.785889,2358.550537 1447.994385,2360.800293 
	C1448.209351,2361.435303 1448.424316,2362.070312 1448.639404,2362.705322 
	C1455.301514,2364.314209 1461.944702,2366.006836 1468.628784,2367.519043 
	C1526.187744,2380.541260 1580.136597,2402.453857 1630.619751,2433.001709 
	C1678.246216,2461.821533 1719.827148,2497.933838 1757.339844,2538.775146 
	C1788.397583,2572.589111 1816.137573,2609.156250 1843.985107,2645.619385 
	C1865.974731,2674.412354 1888.155396,2703.052734 1913.638184,2728.971436 
	C1952.210571,2768.203857 1998.533813,2792.432129 2052.731201,2801.407227 
	C2065.793701,2803.570312 2079.083252,2804.360352 2093.735596,2806.511719 
	C2114.338623,2807.458984 2133.474365,2807.707031 2152.611084,2807.814697 
	C2153.740967,2807.821045 2154.877197,2806.697021 2156.010498,2806.098877 
	C2186.546875,2803.811523 2216.866455,2800.242676 2245.894775,2789.759277 
	C2265.501221,2782.678467 2283.623291,2773.254150 2297.949707,2757.433838 
	C2309.399170,2744.790771 2315.791260,2730.498535 2315.787842,2713.291992 
	C2315.741943,2480.325928 2315.745850,2247.359619 2315.767578,2014.393555 
	C2315.771240,1976.075928 2320.505615,1938.186523 2326.798096,1900.486206 
	C2333.263184,1861.749023 2342.396240,1823.585327 2355.142578,1786.448975 
	C2363.122559,1763.198486 2372.514648,1740.398438 2382.060547,1717.727905 
	C2395.011963,1686.970337 2411.616455,1658.081665 2429.972900,1630.279053 
	C2454.645020,1592.910522 2483.524658,1559.021484 2516.339355,1528.494385 
	C2553.630859,1493.802490 2595.131348,1465.084717 2640.433105,1442.015137 
	C2675.484375,1424.165161 2712.141357,1410.179688 2750.146729,1399.831177 
	C2790.618896,1388.810913 2831.636719,1380.863770 2873.504639,1377.658203 
	C2891.038086,1376.315674 2908.584229,1375.138672 2927.959961,1373.881836 
	C2949.215088,1373.825317 2968.635254,1373.773438 2988.055176,1373.721680 
	C3000.311035,1374.424316 3012.582764,1374.924438 3024.820068,1375.868774 
	C3058.258057,1378.449341 3091.430664,1382.950684 3124.261475,1389.911377 
	C3180.882812,1401.915894 3234.916504,1420.993042 3285.697266,1448.921143 
	C3327.313232,1471.808472 3364.876221,1499.990356 3398.943359,1533.229980 
	C3446.969727,1580.089233 3484.062012,1634.358643 3512.262207,1694.934082 
	C3535.373535,1744.578857 3551.832764,1796.447266 3561.847168,1850.247925 
	C3566.576660,1875.656128 3570.112061,1901.304810 3573.495850,1926.936157 
	C3574.882324,1937.439941 3574.439453,1948.185181 3575.414307,1959.410400 
	C3576.000000,2224.041748 3576.000000,2488.083740 3575.480957,2753.681641 
	C3574.075195,2811.499268 3524.735840,2865.230469 3459.063477,2870.141602 
	C3263.726562,2870.037354 3069.322510,2870.015869 2874.918701,2870.004639 
	C2857.942871,2870.003662 2840.966797,2870.069580 2823.171875,2869.946289 
	C2818.752197,2869.242188 2815.138672,2868.769043 2811.552734,2868.139648 
	C2784.067871,2863.314209 2760.463623,2850.789551 2741.905273,2830.157959 
	C2716.686035,2802.120605 2705.498047,2769.192139 2709.582031,2731.110596 
	C2712.652100,2702.482910 2724.213623,2678.195312 2743.780518,2657.538086 
	C2765.018066,2635.117432 2791.538574,2623.263672 2822.866455,2619.704590 
	C2825.792725,2619.916748 2827.790283,2619.994385 2829.788086,2619.994385 
	C2991.674072,2620.000000 3153.560059,2620.000000 3315.446045,2619.995605 
	C3317.776611,2619.995605 3320.140137,2620.149414 3322.423096,2619.802246 
	C3323.492920,2619.639648 3324.406982,2618.453613 3325.524170,2616.821289 
	C3325.689941,2495.919678 3325.730713,2375.928711 3325.753662,2255.937500 
	C3325.768311,2179.276123 3325.454346,2102.613037 3325.911621,2025.954468 
	C3326.084473,1996.994629 3325.806396,1968.172241 3322.355957,1939.357666 
	C3317.549316,1899.217896 3308.612793,1860.160278 3293.932617,1822.482788 
	C3279.289551,1784.899536 3259.168457,1750.524658 3231.539307,1721.021118 
	C3210.221924,1698.257080 3185.279541,1679.970703 3157.418457,1665.826050 
	C3108.583008,1641.033081 3056.158936,1630.121826 3001.435791,1625.302490 
	C2994.514160,1624.543091 2988.190918,1624.335083 2980.939941,1624.080811 
	C2967.028076,1624.023071 2954.043213,1623.899170 2941.062256,1624.081299 
	C2937.883057,1624.125854 2934.717773,1625.170898 2930.641602,1625.726074 
	C2896.984375,1625.618896 2864.847656,1630.592163 2833.133545,1638.228760 
	C2769.594971,1653.528198 2713.701172,1682.414917 2669.143311,1731.340698 
	C2650.420898,1751.898682 2634.835449,1774.578979 2621.689697,1798.980713 
	C2601.348145,1836.739502 2587.644043,1876.963501 2578.778809,1918.789185 
	C2572.858154,1946.722290 2567.838623,1974.870728 2567.357910,2003.906738 
	C2566.463379,2004.737427 2566.338867,2005.347046 2566.469727,2006.960693 
	C2566.310791,2012.219116 2566.247803,2016.551392 2566.247803,2020.883667 
	C2566.242920,2255.523193 2566.282715,2490.162598 2566.132324,2724.802002 
	C2566.124512,2737.060547 2565.402832,2749.461182 2563.481934,2761.552246 
	C2553.962891,2821.477051 2529.369873,2874.677002 2489.764160,2920.608643 
	C2450.018799,2966.702148 2400.608887,2999.375977 2344.187744,3021.354736 
	C2291.449463,3041.898682 2236.305176,3051.855469 2179.144043,3056.007324 
	C2172.883789,3056.979736 2166.981689,3053.809814 2162.000000,3058.000000 
	C2137.958252,3058.000000 2113.916260,3058.000000 2088.401367,3057.396484 
	C2081.912109,3056.606934 2076.895752,3056.420654 2071.016602,3056.057373 
	C2045.177979,3052.545166 2020.023926,3050.189697 1995.262085,3045.680420 
	C1935.067627,3034.718994 1878.928101,3012.810303 1827.133911,2980.108643 
	C1782.349121,2951.832520 1742.779175,2917.320068 1708.524536,2877.080078 
	C1681.596924,2845.447266 1655.915161,2812.732178 1630.274902,2780.031494 
	C1606.046631,2749.131836 1582.076416,2718.108643 1554.007568,2690.451172 
	C1511.553223,2648.618896 1461.042480,2622.226562 1402.964722,2609.836670 
	C1374.970093,2603.864990 1346.593262,2601.112549 1317.421265,2599.185547 
	C1304.426758,2598.506592 1292.064453,2598.365967 1278.858154,2598.209961 
	C1271.480469,2597.104248 1264.693359,2596.802246 1258.452881,2594.798584 
	C1206.653687,2578.164551 1175.969604,2542.895996 1167.998047,2489.051514 
	C1162.011475,2448.613281 1144.093750,2416.198486 1109.211304,2393.943604 
	C1089.718628,2381.507324 1068.601562,2372.714111 1046.528442,2366.089844 
	C1005.268372,2353.708008 962.868774,2348.426758 919.426086,2345.297852 
	C910.443604,2344.569336 902.072571,2344.397705 892.783325,2344.211182 
	C877.344055,2344.206055 862.822937,2344.216064 847.353271,2344.139893 
	C842.746094,2344.035889 839.071777,2343.795654 835.432495,2344.052734 
	C830.257080,2344.418701 825.107422,2345.149170 819.054016,2345.877197 
	C801.618896,2347.247070 785.046936,2348.156494 768.540894,2349.749512 
	C741.125549,2352.395264 713.629333,2354.632568 686.392883,2358.593994 
	C652.244568,2363.560791 618.241028,2369.654053 584.325134,2376.056396 
	C536.647766,2385.057129 489.328888,2395.742432 442.705048,2409.281982 
	C420.695953,2415.673584 398.446808,2418.950195 375.761108,2414.036133 
	C325.400482,2403.126709 292.006836,2373.078369 278.228363,2323.363770 
	C268.739899,2289.128418 261.693390,2254.217773 253.474014,2219.628418 
	C237.957535,2154.329834 222.344269,2089.054443 206.843491,2023.752319 
	C194.335022,1971.056396 181.980148,1918.323853 169.471741,1865.627930 
	C153.970993,1800.325806 138.343948,1735.053589 122.843178,1669.751465 
	C110.334740,1617.055542 97.980766,1564.322876 85.471222,1511.627319 
	C69.738892,1445.355835 53.899132,1379.109741 38.142490,1312.843994 
	C29.072542,1274.699707 20.169916,1236.515259 10.985381,1198.398682 
	C8.361533,1187.509644 5.015081,1176.794800 1.999998,1166.000000 
	C2.000000,1155.955811 2.000000,1145.911621 2.000000,1134.933716 
	C3.263731,1130.674683 4.896853,1127.439697 5.735548,1124.010498 
	C17.341627,1076.553345 45.861668,1044.211426 92.781006,1030.210571 
	C120.393829,1021.970886 148.755829,1016.002380 177.043991,1010.322876 
	C216.700180,1002.361023 256.514679,995.091370 296.427643,988.537720 
	C323.889191,984.028503 351.580414,980.743530 379.264038,977.808167 
	C409.906555,974.559021 440.656250,972.318420 471.361877,969.668640 
	C478.951843,969.013733 486.551880,968.475342 495.947327,967.879028 
	C504.402740,967.840210 511.058105,967.805908 518.666321,967.842102 
	C553.782898,967.912842 587.946594,967.913086 623.009888,967.945801 
	C629.955933,967.892334 636.002563,967.806519 642.049133,967.720703 
M1655.619019,2063.912842 
	C1683.782837,2063.913086 1711.946655,2063.913330 1741.944092,2063.978271 
	C1749.979126,2063.892578 1758.014160,2063.806885 1767.849365,2064.026123 
	C1788.383789,2065.317871 1808.929199,2066.459473 1829.448486,2067.957275 
	C1841.677368,2068.850342 1853.859619,2070.366211 1866.073608,2071.482910 
	C1875.146729,2072.312744 1884.237427,2072.951172 1894.264648,2073.750000 
	C1816.945923,1747.912109 1739.966431,1423.503174 1662.780640,1098.225220 
	C1654.131714,1098.225220 1646.216187,1098.225220 1636.413330,1098.053955 
	C1628.279907,1098.887451 1619.873901,1096.015747 1610.166260,1100.101807 
	C1593.292725,1101.288574 1576.425659,1102.579102 1559.544312,1103.640259 
	C1525.072388,1105.807007 1490.890137,1110.267700 1456.755615,1115.484497 
	C1403.413940,1123.636719 1350.984863,1135.321899 1300.193115,1153.744141 
	C1262.796143,1167.308350 1227.214233,1184.182617 1196.124390,1209.679443 
	C1155.971191,1242.608887 1141.437500,1284.521240 1152.026001,1334.866577 
	C1159.476196,1370.290283 1168.330444,1405.420410 1176.684814,1440.651489 
	C1192.397583,1506.912842 1208.233154,1573.145264 1223.959106,1639.403564 
	C1236.233032,1691.117676 1248.366211,1742.865234 1260.655762,1794.575684 
	C1276.247681,1860.181763 1291.976685,1925.755371 1307.564453,1991.362427 
	C1316.702759,2029.824463 1325.651001,2068.331787 1334.756226,2106.801514 
	C1336.701660,2115.021484 1338.957153,2123.168213 1341.180420,2131.776855 
	C1343.651367,2130.727783 1345.209839,2130.186523 1346.658203,2129.433350 
	C1373.899292,2115.264404 1402.427979,2104.374512 1431.807129,2095.544678 
	C1472.314087,2083.370361 1513.671509,2075.285645 1555.596680,2070.299561 
	C1580.290771,2067.362549 1605.156128,2065.866455 1631.781982,2063.925293 
	C1639.092407,2063.874268 1646.402954,2063.822998 1655.619019,2063.912842 
M897.887573,2094.028076 
	C928.021667,2095.949951 958.264832,2096.857666 988.259155,2100.080566 
	C1018.065247,2103.283203 1047.621216,2108.814209 1077.768799,2113.397705 
	C1077.504395,2111.208008 1077.462280,2109.570557 1077.095337,2108.009277 
	C1069.190430,2074.380615 1061.282104,2040.752686 1053.307739,2007.140381 
	C1037.895752,1942.177612 1022.460693,1877.220337 1007.001160,1812.268799 
	C992.002441,1749.252686 976.925720,1686.255371 961.948792,1623.234131 
	C947.894714,1564.096191 933.798950,1504.967651 919.973816,1445.776123 
	C913.026611,1416.031982 906.780334,1386.124634 899.948975,1356.352661 
	C895.584412,1337.331665 887.829346,1319.846313 875.703247,1304.314453 
	C861.451721,1286.060181 843.127136,1273.013062 822.877319,1262.571899 
	C780.351746,1240.645386 734.426270,1230.176025 687.393066,1224.278931 
	C663.055115,1221.227295 638.506714,1219.854736 612.788025,1216.646851 
	C611.823181,1216.444580 610.858704,1216.067139 609.893494,1216.065552 
	C583.401672,1216.020752 556.909546,1215.974121 530.418152,1216.075806 
	C528.258850,1216.084106 526.103699,1217.149536 522.134949,1218.031494 
	C513.525391,1218.582275 504.907745,1219.029419 496.307892,1219.703491 
	C471.826416,1221.622437 447.272461,1222.945923 422.893860,1225.770874 
	C386.635193,1229.972290 350.488068,1235.155762 314.324921,1240.149414 
	C303.225464,1241.682129 292.229065,1243.961060 280.468140,1246.024048 
	C315.847870,1395.408325 350.824493,1543.818359 386.173218,1692.139771 
	C421.582764,1840.716187 456.544861,1989.401733 492.103058,2137.705322 
	C526.854980,2131.280762 560.074280,2124.679199 593.464844,2119.103027 
	C623.577698,2114.074219 653.853455,2109.988281 684.106628,2105.846680 
	C698.238953,2103.911865 712.477356,2102.718018 726.685791,2101.381592 
	C746.168762,2099.548584 765.645630,2097.542725 785.168152,2096.272217 
	C804.732666,2094.999268 824.350098,2094.539062 845.817566,2093.926025 
	C862.561218,2093.857910 879.304932,2093.789795 897.887573,2094.028076 
z"/>
<path fill="#FFFFFF" opacity="1.000000" stroke="none" 
	d="
M1.999998,1166.937256 
	C5.015081,1176.794800 8.361533,1187.509644 10.985381,1198.398682 
	C20.169916,1236.515259 29.072542,1274.699707 38.142490,1312.843994 
	C53.899132,1379.109741 69.738892,1445.355835 85.471222,1511.627319 
	C97.980766,1564.322876 110.334740,1617.055542 122.843178,1669.751465 
	C138.343948,1735.053589 153.970993,1800.325806 169.471741,1865.627930 
	C181.980148,1918.323853 194.335022,1971.056396 206.843491,2023.752319 
	C222.344269,2089.054443 237.957535,2154.329834 253.474014,2219.628418 
	C261.693390,2254.217773 268.739899,2289.128418 278.228363,2323.363770 
	C292.006836,2373.078369 325.400482,2403.126709 375.761108,2414.036133 
	C398.446808,2418.950195 420.695953,2415.673584 442.705048,2409.281982 
	C489.328888,2395.742432 536.647766,2385.057129 584.325134,2376.056396 
	C618.241028,2369.654053 652.244568,2363.560791 686.392883,2358.593994 
	C713.629333,2354.632568 741.125549,2352.395264 768.540894,2349.749512 
	C785.046936,2348.156494 801.618896,2347.247070 819.980042,2345.978760 
	C825.463989,2345.951172 829.145752,2346.207031 832.790222,2345.944580 
	C837.975159,2345.571045 843.132629,2344.817139 848.301819,2344.226074 
	C862.822937,2344.216064 877.344055,2344.206055 893.431091,2344.758301 
	C903.343872,2345.498535 911.690674,2345.676514 920.037537,2345.854492 
	C962.868774,2348.426758 1005.268372,2353.708008 1046.528442,2366.089844 
	C1068.601562,2372.714111 1089.718628,2381.507324 1109.211304,2393.943604 
	C1144.093750,2416.198486 1162.011475,2448.613281 1167.998047,2489.051514 
	C1175.969604,2542.895996 1206.653687,2578.164551 1258.452881,2594.798584 
	C1264.693359,2596.802246 1271.480469,2597.104248 1279.512573,2598.760742 
	C1293.358398,2599.458740 1305.705811,2599.591309 1318.053345,2599.723877 
	C1346.593262,2601.112549 1374.970093,2603.864990 1402.964722,2609.836670 
	C1461.042480,2622.226562 1511.553223,2648.618896 1554.007568,2690.451172 
	C1582.076416,2718.108643 1606.046631,2749.131836 1630.274902,2780.031494 
	C1655.915161,2812.732178 1681.596924,2845.447266 1708.524536,2877.080078 
	C1742.779175,2917.320068 1782.349121,2951.832520 1827.133911,2980.108643 
	C1878.928101,3012.810303 1935.067627,3034.718994 1995.262085,3045.680420 
	C2020.023926,3050.189697 2045.177979,3052.545166 2071.047852,3056.498291 
	C2071.941895,3057.116455 2072.000000,3058.000000 2072.000000,3058.000000 
	C1382.152466,3058.000000 692.304810,3058.000000 2.000000,3058.000000 
	C2.000000,2427.958252 2.000000,1797.916504 1.999998,1166.937256 
z"/>
<path fill="#FFFFFF" opacity="1.000000" stroke="none" 
	d="
M2180.025146,3056.048828 
	C2236.305176,3051.855469 2291.449463,3041.898682 2344.187744,3021.354736 
	C2400.608887,2999.375977 2450.018799,2966.702148 2489.764160,2920.608643 
	C2529.369873,2874.677002 2553.962891,2821.477051 2563.481934,2761.552246 
	C2565.402832,2749.461182 2566.124512,2737.060547 2566.132324,2724.802002 
	C2566.282715,2490.162598 2566.242920,2255.523193 2566.247803,2020.883667 
	C2566.247803,2016.551392 2566.310791,2012.219116 2566.819824,2006.646851 
	C2567.698730,2004.870850 2567.849121,2004.271240 2567.746826,2003.608032 
	C2567.838623,1974.870728 2572.858154,1946.722290 2578.778809,1918.789185 
	C2587.644043,1876.963501 2601.348145,1836.739502 2621.689697,1798.980713 
	C2634.835449,1774.578979 2650.420898,1751.898682 2669.143311,1731.340698 
	C2713.701172,1682.414917 2769.594971,1653.528198 2833.133545,1638.228760 
	C2864.847656,1630.592163 2896.984375,1625.618896 2931.617188,1625.813232 
	C2949.760010,1625.877319 2966.022705,1625.824463 2983.166992,1625.843262 
	C2990.043945,1625.894775 2996.039062,1625.874390 3002.034424,1625.854126 
	C3056.158936,1630.121826 3108.583008,1641.033081 3157.418457,1665.826050 
	C3185.279541,1679.970703 3210.221924,1698.257080 3231.539307,1721.021118 
	C3259.168457,1750.524658 3279.289551,1784.899536 3293.932617,1822.482788 
	C3308.612793,1860.160278 3317.549316,1899.217896 3322.355957,1939.357666 
	C3325.806396,1968.172241 3326.084473,1996.994629 3325.911621,2025.954468 
	C3325.454346,2102.613037 3325.768311,2179.276123 3325.753662,2255.937500 
	C3325.730713,2375.928711 3325.689941,2495.919678 3324.641113,2616.897461 
	C3319.633789,2617.922607 3315.642090,2617.995117 3311.650146,2617.995117 
	C3152.277100,2618.000977 2992.904053,2617.989014 2833.531006,2618.064209 
	C2829.666504,2618.065918 2825.802246,2619.022705 2821.937988,2619.534180 
	C2791.538574,2623.263672 2765.018066,2635.117432 2743.780518,2657.538086 
	C2724.213623,2678.195312 2712.652100,2702.482910 2709.582031,2731.110596 
	C2705.498047,2769.192139 2716.686035,2802.120605 2741.905273,2830.157959 
	C2760.463623,2850.789551 2784.067871,2863.314209 2811.552734,2868.139648 
	C2815.138672,2868.769043 2818.752197,2869.242188 2823.778076,2870.516602 
	C2827.828857,2871.497070 2830.454590,2871.968262 2833.080078,2871.968750 
	C3038.892090,2872.002686 3244.703857,2872.007812 3450.515869,2871.925781 
	C3453.676514,2871.924561 3456.836426,2870.817627 3459.996826,2870.226562 
	C3524.735840,2865.230469 3574.075195,2811.499268 3575.480957,2754.619141 
	C3576.000000,2855.281250 3576.000000,2956.562256 3576.000000,3058.000000 
	C3111.291504,3058.000000 2646.583008,3058.000000 2180.929688,3057.512207 
	C2179.984863,3057.024170 2180.025146,3056.048828 2180.025146,3056.048828 
z"/>
<path fill="#60A5FA" opacity="1.000000" stroke="none" 
	d="
M2978.138184,3.720406 
	C3055.495117,9.000288 3129.677490,27.185274 3200.253174,59.326458 
	C3255.383057,84.433525 3306.188721,116.512955 3351.847900,156.472809 
	C3364.354248,167.417969 3377.046143,178.246872 3388.653320,190.107300 
	C3431.451416,233.839401 3468.062256,282.210693 3497.387695,336.084778 
	C3523.949951,384.882965 3544.105713,436.143066 3556.699463,490.161469 
	C3562.638184,515.635132 3566.150391,541.698242 3570.208984,567.580933 
	C3576.170654,605.596558 3575.460938,644.032593 3573.333984,682.137268 
	C3569.892822,743.778931 3556.925293,803.773315 3535.255859,861.778870 
	C3517.113525,910.341675 3493.555664,956.054626 3464.479492,998.946594 
	C3435.770996,1041.296143 3402.383789,1079.645630 3364.470215,1113.921631 
	C3314.485107,1159.110840 3258.610107,1195.483276 3197.145996,1223.169922 
	C3150.854004,1244.022217 3102.721680,1259.166870 3052.720459,1267.891113 
	C3031.507812,1271.592041 3009.988525,1273.560913 2988.588867,1276.154053 
	C2981.684570,1276.990601 2974.717041,1277.306519 2965.954590,1277.958252 
	C2944.749756,1278.071899 2925.368652,1278.088013 2905.987793,1278.104248 
	C2864.491211,1275.702271 2823.460205,1270.053589 2783.091797,1260.050415 
	C2745.580078,1250.754883 2709.288574,1237.950073 2674.003662,1222.139160 
	C2626.061279,1200.656372 2581.842041,1173.085205 2540.638916,1140.704102 
	C2525.768311,1129.017456 2511.999756,1115.904419 2497.971191,1103.174805 
	C2462.066406,1070.594849 2431.703857,1033.234253 2404.889893,993.018921 
	C2367.148193,936.414246 2339.223389,875.260559 2321.397461,809.510132 
	C2311.644775,773.537109 2304.370850,737.163513 2301.749512,699.942505 
	C2300.910645,688.027710 2300.397705,676.089966 2299.717285,662.777161 
	C2299.525879,660.755066 2299.156494,660.267334 2298.590576,659.928467 
	C2298.526855,647.234314 2298.463379,634.540222 2298.915527,620.648254 
	C2299.786621,618.955627 2299.902588,618.409851 2299.778809,617.812988 
	C2299.696289,571.297974 2307.381592,525.806519 2318.851562,480.957581 
	C2338.874268,402.667847 2373.189453,331.055359 2420.643799,265.621094 
	C2444.775391,232.346024 2471.625732,201.455673 2501.796387,173.691925 
	C2576.719727,104.745255 2662.768555,55.117706 2760.976562,27.176367 
	C2799.097656,16.330381 2837.788818,8.592187 2877.370605,5.629902 
	C2882.323486,5.259231 2887.256104,4.615903 2893.972168,4.046372 
	C2902.475830,3.107568 2909.587158,6.099822 2916.000000,2.000000 
	C2929.375244,2.000000 2942.750732,2.000000 2957.614258,2.609392 
	C2965.447998,3.385992 2971.792969,3.553199 2978.138184,3.720406 
M2950.793213,252.649078 
	C2943.940430,252.433044 2937.083984,251.984848 2930.236816,252.098709 
	C2926.802734,252.155807 2923.386230,253.236633 2918.187744,254.101929 
	C2901.068848,256.080322 2883.823486,257.309845 2866.855957,260.183075 
	C2822.792725,267.644745 2781.629150,283.470306 2743.049561,305.848724 
	C2702.959473,329.103271 2668.016357,358.589050 2638.520020,394.410400 
	C2614.029053,424.152863 2594.305176,456.783051 2579.478516,492.359100 
	C2564.418945,528.494507 2555.198242,565.981384 2551.466064,605.030334 
	C2548.760010,633.340759 2549.077637,661.533997 2552.680176,689.551819 
	C2557.314941,725.597717 2566.940186,760.422058 2581.541748,793.885254 
	C2606.499756,851.083496 2643.104492,899.472656 2691.025635,939.163635 
	C2725.099609,967.385620 2763.010498,989.313049 2804.797119,1004.243164 
	C2840.033447,1016.832764 2876.111816,1025.298340 2915.013916,1027.325562 
	C2928.939453,1027.512817 2942.864502,1027.740845 2956.790771,1027.813232 
	C2957.955566,1027.819336 2959.125732,1026.778687 2962.095703,1026.190552 
	C2995.631104,1025.388428 3028.088379,1018.208252 3059.564697,1007.446167 
	C3124.720703,985.168518 3180.614746,948.446838 3226.302490,896.653076 
	C3264.733398,853.086121 3292.283203,803.488342 3308.326416,747.601074 
	C3316.136475,720.396118 3321.978760,692.837585 3322.979980,663.759705 
	C3323.467041,663.237427 3323.589111,662.640625 3323.640869,660.123169 
	C3323.562500,646.762512 3323.484131,633.401917 3323.504395,619.065979 
	C3323.289551,618.405579 3322.871826,617.918823 3322.254883,615.814758 
	C3321.601807,607.882324 3321.094238,599.934814 3320.271240,592.020081 
	C3316.103516,551.932922 3304.571533,513.810730 3287.510986,477.533020 
	C3259.827393,418.666290 3219.802979,369.563599 3167.630371,330.500519 
	C3134.592041,305.763794 3098.509766,286.823547 3059.428955,273.623108 
	C3024.600098,261.858795 2988.730469,255.580505 2950.793213,252.649078 
z"/>
<path fill="#C9E0FD" opacity="1.000000" stroke="none" 
	d="
M2915.083984,2.000000 
	C2909.587158,6.099822 2902.475830,3.107568 2894.837402,3.927519 
	C2893.927979,3.861207 2894.001221,2.932048 2894.000488,2.466024 
	C2900.722656,2.000000 2907.445068,2.000000 2915.083984,2.000000 
z"/>
<path fill="#C9E0FD" opacity="1.000000" stroke="none" 
	d="
M2978.101318,3.290495 
	C2971.792969,3.553199 2965.447998,3.385992 2958.551270,2.609392 
	C2964.061279,2.000000 2970.122314,2.000000 2977.091797,2.000000 
	C2978.000000,2.000000 2978.064453,2.860583 2978.101318,3.290495 
z"/>
<path fill="#C9E0FD" opacity="1.000000" stroke="none" 
	d="
M2179.144043,3056.007324 
	C2180.025146,3056.048828 2179.984863,3057.024170 2179.992432,3057.512207 
	C2174.599854,3058.000000 2169.199951,3058.000000 2162.899902,3058.000000 
	C2166.981689,3053.809814 2172.883789,3056.979736 2179.144043,3056.007324 
z"/>
<path fill="#C9E0FD" opacity="1.000000" stroke="none" 
	d="
M2072.888184,3058.000000 
	C2072.000000,3058.000000 2071.941895,3057.116455 2071.910645,3056.675537 
	C2076.895752,3056.420654 2081.912109,3056.606934 2087.464355,3057.396484 
	C2083.258789,3058.000000 2078.517822,3058.000000 2072.888184,3058.000000 
z"/>
<path fill="#D7D2FC" opacity="1.000000" stroke="none" 
	d="
M1749.395264,847.047607 
	C1733.177002,847.689514 1716.293579,847.929993 1699.409546,847.978516 
	C1677.545898,848.041321 1655.681885,847.950989 1632.881226,847.824097 
	C1634.103882,847.148132 1636.262085,846.080383 1638.423096,846.074707 
	C1674.219482,845.980957 1710.016357,846.016296 1745.813110,846.052368 
	C1746.785400,846.053345 1747.757568,846.383911 1749.395264,847.047607 
z"/>
<path fill="#87A5FA" opacity="1.000000" stroke="none" 
	d="
M622.110352,967.913330 
	C587.946594,967.913086 553.782898,967.912842 518.771240,967.431580 
	C517.923340,966.950500 518.130981,966.126831 518.130981,966.126831 
	C552.049255,966.117493 585.967590,966.108154 620.903564,966.594116 
	C621.921326,967.089294 622.110352,967.913330 622.110352,967.913330 
z"/>
<path fill="#87D2FC" opacity="1.000000" stroke="none" 
	d="
M1656.899902,2313.920898 
	C1658.099976,2313.236816 1660.235596,2312.093018 1662.376831,2312.082520 
	C1685.559570,2311.969482 1708.743042,2312.026367 1731.926270,2312.079834 
	C1732.884521,2312.082031 1733.841553,2312.506836 1735.416382,2313.294434 
	C1709.968506,2313.898438 1683.903320,2313.943115 1656.899902,2313.920898 
z"/>
<path fill="#87A5FA" opacity="1.000000" stroke="none" 
	d="
M2155.073730,2806.043945 
	C2154.877197,2806.697021 2153.740967,2807.821045 2152.611084,2807.814697 
	C2133.474365,2807.707031 2114.338623,2807.458984 2094.597168,2806.670410 
	C2114.040039,2806.062500 2134.088379,2806.025879 2155.073730,2806.043945 
z"/>
<path fill="#D7FFFF" opacity="1.000000" stroke="none" 
	d="
M2906.594482,1278.675049 
	C2925.368652,1278.088013 2944.749756,1278.071899 2965.063965,1278.141357 
	C2965.168701,1278.735840 2964.338623,1279.691650 2963.512451,1279.687866 
	C2944.741943,1279.603882 2925.971436,1279.415039 2906.594482,1278.675049 
z"/>
<path fill="#D7D2FC" opacity="1.000000" stroke="none" 
	d="
M2987.422119,1373.183594 
	C2968.635254,1373.773438 2949.215088,1373.825317 2928.866699,1373.705811 
	C2928.803711,1373.088745 2929.670654,1372.251343 2930.534668,1372.254761 
	C2949.286377,1372.328613 2968.037598,1372.496094 2987.422119,1373.183594 
z"/>
<path fill="#D7D2FC" opacity="1.000000" stroke="none" 
	d="
M517.217896,966.073120 
	C518.130981,966.126831 517.923340,966.950500 517.818420,967.361023 
	C511.058105,967.805908 504.402740,967.840210 496.843109,967.704468 
	C502.727539,967.029419 509.516205,966.524414 517.217896,966.073120 
z"/>
<path fill="#D7D2FC" opacity="1.000000" stroke="none" 
	d="
M623.009888,967.945801 
	C622.110352,967.913330 621.921326,967.089294 621.819519,966.679871 
	C628.085327,966.399597 634.453003,966.528687 641.434875,967.189209 
	C636.002563,967.806519 629.955933,967.892334 623.009888,967.945801 
z"/>
<path fill="#D7D2FC" opacity="1.000000" stroke="none" 
	d="
M1605.380859,848.139526 
	C1600.105591,848.791016 1593.917480,849.357300 1586.836792,849.822571 
	C1592.118774,849.165833 1598.293335,848.610107 1605.380859,848.139526 
z"/>
<path fill="#87D2FC" opacity="1.000000" stroke="none" 
	d="
M2298.545410,660.407104 
	C2299.156494,660.267334 2299.525879,660.755066 2299.702393,661.862671 
	C2299.101807,662.019409 2298.699951,661.536682 2298.545410,660.407104 
z"/>
<path fill="#87D2FC" opacity="1.000000" stroke="none" 
	d="
M2299.450684,618.098877 
	C2299.902588,618.409851 2299.786621,618.955627 2299.117920,619.734619 
	C2298.596436,619.413025 2298.702393,618.868347 2299.450684,618.098877 
z"/>
<path fill="#FFFFFF" opacity="1.000000" stroke="none" 
	d="
M1638.300781,1098.225220 
	C1646.216187,1098.225220 1654.131714,1098.225220 1662.780640,1098.225220 
	C1739.966431,1423.503174 1816.945923,1747.912109 1894.264648,2073.750000 
	C1884.237427,2072.951172 1875.146729,2072.312744 1866.073608,2071.482910 
	C1853.859619,2070.366211 1841.677368,2068.850342 1829.448486,2067.957275 
	C1808.929199,2066.459473 1788.383789,2065.317871 1766.324341,2063.338379 
	C1756.438721,2062.524414 1748.078003,2062.397949 1738.801514,2062.185303 
	C1709.967651,2062.108643 1682.049438,2062.117920 1653.208008,2062.073242 
	C1644.837891,2062.587158 1637.391235,2063.155029 1629.944458,2063.722656 
	C1605.156128,2065.866455 1580.290771,2067.362549 1555.596680,2070.299561 
	C1513.671509,2075.285645 1472.314087,2083.370361 1431.807129,2095.544678 
	C1402.427979,2104.374512 1373.899292,2115.264404 1346.658203,2129.433350 
	C1345.209839,2130.186523 1343.651367,2130.727783 1341.180420,2131.776855 
	C1338.957153,2123.168213 1336.701660,2115.021484 1334.756226,2106.801514 
	C1325.651001,2068.331787 1316.702759,2029.824463 1307.564453,1991.362427 
	C1291.976685,1925.755371 1276.247681,1860.181763 1260.655762,1794.575684 
	C1248.366211,1742.865234 1236.233032,1691.117676 1223.959106,1639.403564 
	C1208.233154,1573.145264 1192.397583,1506.912842 1176.684814,1440.651489 
	C1168.330444,1405.420410 1159.476196,1370.290283 1152.026001,1334.866577 
	C1141.437500,1284.521240 1155.971191,1242.608887 1196.124390,1209.679443 
	C1227.214233,1184.182617 1262.796143,1167.308350 1300.193115,1153.744141 
	C1350.984863,1135.321899 1403.413940,1123.636719 1456.755615,1115.484497 
	C1490.890137,1110.267700 1525.072388,1105.807007 1559.544312,1103.640259 
	C1576.425659,1102.579102 1593.292725,1101.288574 1611.986816,1100.044678 
	C1621.971924,1099.400269 1630.136353,1098.812744 1638.300781,1098.225220 
z"/>
<path fill="#FFFFFF" opacity="1.000000" stroke="none" 
	d="
M614.053345,1217.723633 
	C638.506714,1219.854736 663.055115,1221.227295 687.393066,1224.278931 
	C734.426270,1230.176025 780.351746,1240.645386 822.877319,1262.571899 
	C843.127136,1273.013062 861.451721,1286.060181 875.703247,1304.314453 
	C887.829346,1319.846313 895.584412,1337.331665 899.948975,1356.352661 
	C906.780334,1386.124634 913.026611,1416.031982 919.973816,1445.776123 
	C933.798950,1504.967651 947.894714,1564.096191 961.948792,1623.234131 
	C976.925720,1686.255371 992.002441,1749.252686 1007.001160,1812.268799 
	C1022.460693,1877.220337 1037.895752,1942.177612 1053.307739,2007.140381 
	C1061.282104,2040.752686 1069.190430,2074.380615 1077.095337,2108.009277 
	C1077.462280,2109.570557 1077.504395,2111.208008 1077.768799,2113.397705 
	C1047.621216,2108.814209 1018.065247,2103.283203 988.259155,2100.080566 
	C958.264832,2096.857666 928.021667,2095.949951 896.336548,2093.336914 
	C878.996643,2092.458740 863.207886,2092.237061 847.418457,2092.157471 
	C846.263062,2092.151855 845.102478,2093.176758 843.944275,2093.722656 
	C824.350098,2094.539062 804.732666,2094.999268 785.168152,2096.272217 
	C765.645630,2097.542725 746.168762,2099.548584 726.685791,2101.381592 
	C712.477356,2102.718018 698.238953,2103.911865 684.106628,2105.846680 
	C653.853455,2109.988281 623.577698,2114.074219 593.464844,2119.103027 
	C560.074280,2124.679199 526.854980,2131.280762 492.103058,2137.705322 
	C456.544861,1989.401733 421.582764,1840.716187 386.173218,1692.139771 
	C350.824493,1543.818359 315.847870,1395.408325 280.468140,1246.024048 
	C292.229065,1243.961060 303.225464,1241.682129 314.324921,1240.149414 
	C350.488068,1235.155762 386.635193,1229.972290 422.893860,1225.770874 
	C447.272461,1222.945923 471.826416,1221.622437 496.307892,1219.703491 
	C504.907745,1219.029419 513.525391,1218.582275 523.977539,1217.979248 
	C555.231201,1217.859253 584.642273,1217.791382 614.053345,1217.723633 
z"/>
<path fill="#D7FFFF" opacity="1.000000" stroke="none" 
	d="
M3459.063477,2870.141357 
	C3456.836426,2870.817627 3453.676514,2871.924561 3450.515869,2871.925781 
	C3244.703857,2872.007812 3038.892090,2872.002686 2833.080078,2871.968750 
	C2830.454590,2871.968262 2827.828857,2871.497070 2824.597168,2870.675049 
	C2840.966797,2870.069580 2857.942871,2870.003662 2874.918701,2870.004639 
	C3069.322510,2870.015869 3263.726562,2870.037354 3459.063477,2870.141357 
z"/>
<path fill="#D7D2FC" opacity="1.000000" stroke="none" 
	d="
M2822.866455,2619.704590 
	C2825.802246,2619.022705 2829.666504,2618.065918 2833.531006,2618.064209 
	C2992.904053,2617.989014 3152.277100,2618.000977 3311.650146,2617.995117 
	C3315.642090,2617.995117 3319.633789,2617.922607 3324.508789,2617.807617 
	C3324.406982,2618.453613 3323.492920,2619.639648 3322.423096,2619.802246 
	C3320.140137,2620.149414 3317.776611,2619.995605 3315.446045,2619.995605 
	C3153.560059,2620.000000 2991.674072,2620.000000 2829.788086,2619.994385 
	C2827.790283,2619.994385 2825.792725,2619.916748 2822.866455,2619.704590 
z"/>
<path fill="#87D2FC" opacity="1.000000" stroke="none" 
	d="
M613.420654,1217.185181 
	C584.642273,1217.791382 555.231201,1217.859253 524.883423,1217.825439 
	C526.103699,1217.149536 528.258850,1216.084106 530.418152,1216.075806 
	C556.909546,1215.974121 583.401672,1216.020752 609.893494,1216.065552 
	C610.858704,1216.067139 611.823181,1216.444580 613.420654,1217.185181 
z"/>
<path fill="#87A5FA" opacity="1.000000" stroke="none" 
	d="
M1654.131348,2062.127197 
	C1682.049438,2062.117920 1709.967651,2062.108643 1738.903564,2062.594482 
	C1739.921387,2063.089600 1740.110474,2063.913330 1740.110474,2063.913330 
	C1711.946655,2063.913330 1683.782837,2063.913086 1654.771240,2063.431885 
	C1653.923462,2062.950928 1654.131348,2062.127197 1654.131348,2062.127197 
z"/>
<path fill="#D7D2FC" opacity="1.000000" stroke="none" 
	d="
M844.880920,2093.824219 
	C845.102478,2093.176758 846.263062,2092.151855 847.418457,2092.157471 
	C863.207886,2092.237061 878.996643,2092.458740 895.417053,2093.183594 
	C879.304932,2093.789795 862.561218,2093.857910 844.880920,2093.824219 
z"/>
<path fill="#D7FFFF" opacity="1.000000" stroke="none" 
	d="
M2982.285400,1625.771606 
	C2966.022705,1625.824463 2949.760010,1625.877319 2932.521729,1625.843018 
	C2934.717773,1625.170898 2937.883057,1624.125854 2941.062256,1624.081299 
	C2954.043213,1623.899170 2967.028076,1624.023071 2981.044922,1624.491455 
	C2982.078125,1624.948608 2982.285400,1625.771606 2982.285400,1625.771606 
z"/>
<path fill="#87D2FC" opacity="1.000000" stroke="none" 
	d="
M1317.421265,2599.185547 
	C1305.705811,2599.591309 1293.358398,2599.458740 1280.356445,2598.775879 
	C1292.064453,2598.365967 1304.426758,2598.506592 1317.421265,2599.185547 
z"/>
<path fill="#87D2FC" opacity="1.000000" stroke="none" 
	d="
M847.353271,2344.139648 
	C843.132629,2344.817139 837.975159,2345.571045 832.790222,2345.944580 
	C829.145752,2346.207031 825.463989,2345.951172 820.872803,2345.825439 
	C825.107422,2345.149170 830.257080,2344.418701 835.432495,2344.052734 
	C839.071777,2343.795654 842.746094,2344.035889 847.353271,2344.139648 
z"/>
<path fill="#87D2FC" opacity="1.000000" stroke="none" 
	d="
M1637.357056,1098.139648 
	C1630.136353,1098.812744 1621.971924,1099.400269 1612.884521,1099.920654 
	C1619.873901,1096.015747 1628.279907,1098.887451 1637.357056,1098.139648 
z"/>
<path fill="#87D2FC" opacity="1.000000" stroke="none" 
	d="
M919.426086,2345.297852 
	C911.690674,2345.676514 903.343872,2345.498535 894.349243,2344.773438 
	C902.072571,2344.397705 910.443604,2344.569336 919.426086,2345.297852 
z"/>
<path fill="#D7D2FC" opacity="1.000000" stroke="none" 
	d="
M1741.027344,2063.945801 
	C1740.110474,2063.913330 1739.921387,2063.089600 1739.819336,2062.680420 
	C1748.078003,2062.397949 1756.438721,2062.524414 1765.424316,2063.186035 
	C1758.014160,2063.806885 1749.979126,2063.892578 1741.027344,2063.945801 
z"/>
<path fill="#D7D2FC" opacity="1.000000" stroke="none" 
	d="
M1653.208008,2062.073242 
	C1654.131348,2062.127197 1653.923462,2062.950928 1653.818359,2063.361328 
	C1646.402954,2063.822998 1639.092407,2063.874268 1630.863281,2063.823975 
	C1637.391235,2063.155029 1644.837891,2062.587158 1653.208008,2062.073242 
z"/>
<path fill="#87D2FC" opacity="1.000000" stroke="none" 
	d="
M2983.166992,1625.843262 
	C2982.285400,1625.771606 2982.078125,1624.948608 2981.973145,1624.537842 
	C2988.190918,1624.335083 2994.514160,1624.543091 3001.435791,1625.302490 
	C2996.039062,1625.874390 2990.043945,1625.894775 2983.166992,1625.843262 
z"/>
<path fill="#D7E9FE" opacity="1.000000" stroke="none" 
	d="
M2567.357910,2003.906738 
	C2567.849121,2004.271240 2567.698730,2004.870850 2566.945068,2005.720703 
	C2566.338867,2005.347046 2566.463379,2004.737427 2567.357910,2003.906738 
z"/>
<path fill="#FFFFFF" opacity="1.000000" stroke="none" 
	d="
M3322.230713,664.358215 
	C3321.978760,692.837585 3316.136475,720.396118 3308.326416,747.601074 
	C3292.283203,803.488342 3264.733398,853.086121 3226.302490,896.653076 
	C3180.614746,948.446838 3124.720703,985.168518 3059.564697,1007.446167 
	C3028.088379,1018.208252 2995.631104,1025.388428 2960.234375,1026.120972 
	C2943.484375,1026.109131 2928.595703,1026.166870 2913.706787,1026.224487 
	C2876.111816,1025.298340 2840.033447,1016.832764 2804.797119,1004.243164 
	C2763.010498,989.313049 2725.099609,967.385620 2691.025635,939.163635 
	C2643.104492,899.472656 2606.499756,851.083496 2581.541748,793.885254 
	C2566.940186,760.422058 2557.314941,725.597717 2552.680176,689.551819 
	C2549.077637,661.533997 2548.760010,633.340759 2551.466064,605.030334 
	C2555.198242,565.981384 2564.418945,528.494507 2579.478516,492.359100 
	C2594.305176,456.783051 2614.029053,424.152863 2638.520020,394.410400 
	C2668.016357,358.589050 2702.959473,329.103271 2743.049561,305.848724 
	C2781.629150,283.470306 2822.792725,267.644745 2866.855957,260.183075 
	C2883.823486,257.309845 2901.068848,256.080322 2920.009521,254.044983 
	C2931.905273,253.899994 2941.979248,253.811935 2952.053223,253.723877 
	C2988.730469,255.580505 3024.600098,261.858795 3059.428955,273.623108 
	C3098.509766,286.823547 3134.592041,305.763794 3167.630371,330.500519 
	C3219.802979,369.563599 3259.827393,418.666290 3287.510986,477.533020 
	C3304.571533,513.810730 3316.103516,551.932922 3320.271240,592.020081 
	C3321.094238,599.934814 3321.601807,607.882324 3322.270020,617.187134 
	C3322.466064,619.199280 3322.839600,619.693176 3323.405762,620.041260 
	C3323.484131,633.401917 3323.562500,646.762512 3323.150879,661.355469 
	C3322.269531,663.117493 3322.125977,663.707642 3322.230713,664.358215 
z"/>
<path fill="#D7D2FC" opacity="1.000000" stroke="none" 
	d="
M2914.360352,1026.775024 
	C2928.595703,1026.166870 2943.484375,1026.109131 2959.333496,1026.137817 
	C2959.125732,1026.778687 2957.955566,1027.819336 2956.790771,1027.813232 
	C2942.864502,1027.740845 2928.939453,1027.512817 2914.360352,1026.775024 
z"/>
<path fill="#87D2FC" opacity="1.000000" stroke="none" 
	d="
M2951.423340,253.186478 
	C2941.979248,253.811935 2931.905273,253.899994 2920.896484,253.921265 
	C2923.386230,253.236633 2926.802734,252.155807 2930.236816,252.098709 
	C2937.083984,251.984848 2943.940430,252.433044 2951.423340,253.186478 
z"/>
<path fill="#D7E9FE" opacity="1.000000" stroke="none" 
	d="
M3322.605469,664.058960 
	C3322.125977,663.707642 3322.269531,663.117493 3323.003418,662.278564 
	C3323.589111,662.640625 3323.467041,663.237427 3322.605469,664.058960 
z"/>
<path fill="#D7E9FE" opacity="1.000000" stroke="none" 
	d="
M3323.455078,619.553589 
	C3322.839600,619.693176 3322.466064,619.199280 3322.268555,618.082642 
	C3322.871826,617.918823 3323.289551,618.405579 3323.455078,619.553589 
z"/>
</svg>